<?xml version="1.0" encoding="utf-8"?>
<!-- Generator: Adobe Illustrator 24.1.2, SVG Export Plug-In . SVG Version: 6.00 Build 0)  -->
<svg version="1.1" id="Layer_1" xmlns="http://www.w3.org/2000/svg" xmlns:xlink="http://www.w3.org/1999/xlink" x="0px" y="0px"
	 viewBox="0 0 218.33 192" style="enable-background:new 0 0 218.33 192;" xml:space="preserve">
<style type="text/css">
	.st0{fill:none;stroke:#000000;stroke-width:3;stroke-miterlimit:10;}
	.st1{fill:none;stroke:#000000;stroke-miterlimit:10;}
</style>
<g>
	<polyline class="st0" points="200.49,141.62 143.15,67.83 142.83,67.83 142.83,141.62 	"/>
	<path class="st0" d="M62.09,105.84c9.48,8.3,18.74,12.46,27.79,12.46c4.05,0,7.59-1.04,10.62-3.12s4.55-5.08,4.55-9.02
		c0-5.43-5.06-9.64-15.17-12.62c-0.32-0.11-1.6-0.48-3.83-1.12c-5.75-1.6-10.28-3.09-13.58-4.47c-1-0.42-2-0.99-3-1.51
		c-6.76,10.15-18.78,15.25-36.13,15.25H15.61v39.93"/>
	<path class="st0" d="M69.92,141.62c-7.36-2.29-14.45-5.78-21.26-10.54"/>
	<path class="st0" d="M32.22,21.19c13.22,0,23.7,3.15,31.47,9.41c0.47-0.5,0.92-1.02,1.42-1.5c3.73-3.55,7.97-6.22,12.7-8.07"/>
	<polyline class="st0" points="142.83,21.19 200.17,94.82 200.49,94.82 200.49,21.19 	"/>
	<path class="st0" d="M15.61,76.45h5.27c2.98,0,5.24-0.02,6.79-0.08c1.54-0.05,3.51-0.34,5.91-0.88c2.4-0.53,4.18-1.28,5.35-2.24
		c1.17-0.96,2.21-2.4,3.12-4.31c0.9-1.92,1.36-4.31,1.36-7.19c0-2.98-0.43-5.45-1.28-7.43c-0.85-1.97-1.86-3.49-3.04-4.55
		c-1.17-1.06-2.9-1.84-5.19-2.32c-2.29-0.48-4.26-0.77-5.91-0.88c-1.65-0.11-4.02-0.16-7.11-0.16h-5.27"/>
	<path class="st0" d="M116.71,49.59c-5.39-3.58-11.14-5.4-17.25-5.4c-3.3,0-6.36,0.91-9.18,2.71c-2.82,1.81-4.23,4.26-4.23,7.35
		c0,2.13,0.88,4.05,2.63,5.75c1.76,1.7,3.41,2.87,4.95,3.51c1.54,0.64,3.65,1.38,6.31,2.24l7.99,2.4c3.2,0.95,6.07,2.07,8.78,3.29"
		/>
</g>
<circle class="st1" cx="15.61" cy="123.14" r="4.53"/>
<circle class="st1" cx="63.83" cy="30.61" r="4.53"/>
<circle class="st1" cx="171.66" cy="104.72" r="4.53"/>
<circle class="st1" cx="101.37" cy="66.11" r="4.53"/>
<circle class="st1" cx="68.36" cy="140.88" r="4.53"/>
<circle class="st1" cx="200.49" cy="21.03" r="4.53"/>
<g>
	<path d="M13.49,159.19h4.17v22.97h-4.17V159.19z M15.42,169.24h7.35c0.54,0,1.01-0.13,1.43-0.38c0.42-0.25,0.74-0.61,0.97-1.06
		c0.23-0.45,0.35-0.97,0.35-1.56c0-0.6-0.11-1.13-0.34-1.59c-0.23-0.46-0.55-0.81-0.96-1.07c-0.42-0.25-0.9-0.38-1.45-0.38h-7.35
		v-4.01h7.24c1.42,0,2.67,0.29,3.76,0.88c1.08,0.58,1.92,1.41,2.52,2.47c0.59,1.06,0.89,2.3,0.89,3.7c0,1.4-0.3,2.63-0.89,3.69
		c-0.6,1.06-1.44,1.88-2.52,2.46c-1.08,0.58-2.34,0.87-3.76,0.87h-7.24V169.24z"/>
	<path d="M34.64,181.56c-1.05-0.56-1.85-1.37-2.4-2.44c-0.55-1.07-0.82-2.36-0.82-3.86v-2.67c0-1.49,0.27-2.76,0.82-3.81
		c0.55-1.06,1.35-1.86,2.4-2.42c1.05-0.55,2.32-0.83,3.81-0.83c1.48,0,2.75,0.28,3.81,0.83c1.05,0.55,1.85,1.36,2.4,2.42
		c0.55,1.06,0.82,2.33,0.82,3.81v2.72c0,1.5-0.27,2.77-0.82,3.83c-0.55,1.06-1.35,1.87-2.4,2.42s-2.32,0.84-3.81,0.84
		C36.96,182.4,35.7,182.12,34.64,181.56z M40.56,177.58c0.5-0.54,0.75-1.3,0.75-2.27v-2.72c0-0.97-0.25-1.72-0.75-2.25
		c-0.5-0.53-1.21-0.8-2.13-0.8c-0.9,0-1.59,0.27-2.09,0.8c-0.5,0.53-0.75,1.28-0.75,2.25v2.72c0,0.98,0.25,1.74,0.74,2.27
		s1.2,0.81,2.1,0.81C39.35,178.39,40.06,178.12,40.56,177.58z"/>
	<path d="M52.89,182.14c-0.92-0.17-1.77-0.43-2.57-0.78s-1.51-0.76-2.13-1.25l2.56-3.19c0.8,0.53,1.64,0.93,2.5,1.22
		c0.87,0.28,1.7,0.43,2.49,0.43c1.04,0,1.85-0.13,2.42-0.38c0.57-0.25,0.85-0.61,0.85-1.06c0-0.39-0.13-0.68-0.39-0.88
		c-0.26-0.2-0.58-0.34-0.98-0.42c-0.4-0.08-0.96-0.15-1.68-0.21c-0.17-0.02-0.35-0.04-0.53-0.06c-0.18-0.02-0.37-0.04-0.54-0.06
		c-0.04,0-0.09,0-0.13-0.01s-0.09-0.01-0.13-0.01c-1.2-0.15-2.17-0.34-2.91-0.57c-0.74-0.23-1.36-0.67-1.86-1.33
		c-0.51-0.65-0.76-1.6-0.76-2.84c0-1.11,0.26-2.05,0.77-2.83c0.52-0.78,1.27-1.37,2.27-1.77c1-0.4,2.2-0.6,3.63-0.6
		c0.83,0,1.66,0.08,2.47,0.25s1.6,0.41,2.35,0.73c0.75,0.32,1.45,0.69,2.09,1.14l-2.48,3.03c-0.74-0.42-1.5-0.75-2.27-0.97
		c-0.78-0.23-1.53-0.34-2.26-0.34c-0.91,0-1.6,0.11-2.09,0.34c-0.49,0.23-0.73,0.54-0.73,0.96c0,0.29,0.13,0.52,0.4,0.69
		c0.26,0.16,0.59,0.28,1,0.35c0.4,0.07,0.97,0.14,1.72,0.23c0.09,0.01,0.19,0.02,0.28,0.03c0.09,0.01,0.18,0.02,0.28,0.03
		c0.04,0,0.09,0,0.13,0s0.09,0.01,0.13,0.02c1.25,0.14,2.28,0.32,3.09,0.55c0.81,0.23,1.49,0.69,2.05,1.39
		c0.56,0.69,0.84,1.71,0.84,3.05c0,1.15-0.27,2.12-0.81,2.93c-0.54,0.81-1.34,1.42-2.39,1.84c-1.05,0.42-2.31,0.63-3.8,0.63
		C54.75,182.4,53.8,182.31,52.89,182.14z"/>
	<path d="M66.09,159.19h4.17v4.17h-4.17V159.19z M66.09,165.76h4.17v16.4h-4.17V165.76z"/>
	<path d="M78.7,182.07c-1.04-0.22-2.02-0.54-2.93-0.97c-0.91-0.43-1.73-0.94-2.46-1.54l2.01-3.41c0.88,0.73,1.9,1.29,3.04,1.68
		c1.14,0.4,2.32,0.59,3.55,0.59c1.44,0,2.56-0.25,3.36-0.75s1.2-1.2,1.2-2.11v-0.02c0-0.64-0.18-1.15-0.54-1.52
		c-0.36-0.37-0.82-0.65-1.39-0.82s-1.31-0.33-2.21-0.48c-0.03-0.01-0.06-0.02-0.09-0.02c-0.03,0-0.06-0.01-0.09-0.02l-0.33-0.05
		c-1.54-0.24-2.81-0.54-3.82-0.9c-1.01-0.36-1.86-0.99-2.56-1.9c-0.7-0.91-1.05-2.2-1.05-3.86v-0.02c0-1.47,0.33-2.74,0.99-3.78
		c0.66-1.05,1.62-1.85,2.88-2.39c1.26-0.55,2.78-0.82,4.56-0.82c0.82,0,1.66,0.09,2.5,0.28c0.85,0.19,1.68,0.46,2.5,0.82
		c0.82,0.36,1.59,0.79,2.33,1.3l-1.83,3.51c-0.88-0.61-1.8-1.08-2.75-1.42s-1.86-0.51-2.75-0.51c-1.36,0-2.41,0.23-3.16,0.7
		s-1.12,1.12-1.12,1.96v0.02c0,0.68,0.19,1.22,0.58,1.62s0.87,0.68,1.45,0.86c0.57,0.18,1.38,0.37,2.41,0.58
		c0.04,0.01,0.08,0.02,0.13,0.02s0.08,0.01,0.13,0.02c0.06,0.01,0.12,0.02,0.18,0.04c0.06,0.02,0.12,0.03,0.18,0.04
		c1.44,0.28,2.65,0.63,3.62,1.03c0.97,0.4,1.78,1.05,2.42,1.95c0.65,0.9,0.97,2.13,0.97,3.67v0.03c0,1.45-0.34,2.7-1.02,3.74
		c-0.68,1.04-1.67,1.83-2.98,2.37c-1.31,0.54-2.88,0.81-4.71,0.81C80.81,182.4,79.74,182.29,78.7,182.07z"/>
	<path d="M93.08,165.76h7.93v3.59h-7.93V165.76z M95.75,181.14c-0.66-0.73-0.99-1.81-0.99-3.25v-16.9h4.17v15.99
		c0,0.4,0.08,0.71,0.24,0.92c0.16,0.22,0.39,0.32,0.7,0.32h1.14v4.01h-2.13C97.45,182.24,96.41,181.87,95.75,181.14z"/>
	<path d="M105.43,181.14c-0.88-0.84-1.33-2.11-1.33-3.81c0-1.62,0.48-2.84,1.45-3.65c0.96-0.81,2.41-1.22,4.35-1.22h4.19l0.22,3.21
		h-4.39c-0.68,0-1.2,0.14-1.53,0.41c-0.34,0.27-0.51,0.69-0.51,1.25c0,0.58,0.22,1.01,0.65,1.29c0.43,0.28,1.08,0.42,1.96,0.42
		c1.17,0,2.04-0.13,2.61-0.4c0.57-0.26,0.85-0.67,0.85-1.23l0.33,2.37c-0.1,0.57-0.38,1.05-0.85,1.45c-0.47,0.4-1.05,0.69-1.75,0.88
		c-0.7,0.19-1.44,0.29-2.22,0.29C107.66,182.4,106.31,181.98,105.43,181.14z M113.94,171.77c0-0.8-0.26-1.42-0.77-1.86
		c-0.52-0.44-1.25-0.66-2.2-0.66c-0.61,0-1.22,0.1-1.82,0.3c-0.61,0.2-1.14,0.48-1.6,0.84l-2.64-2.5c0.64-0.75,1.5-1.33,2.57-1.75
		s2.25-0.62,3.55-0.62c1.42,0,2.64,0.24,3.64,0.72c1.01,0.48,1.77,1.17,2.3,2.09c0.53,0.91,0.79,2.01,0.79,3.29v10.54h-3.81V171.77z
		"/>
	<path d="M124.18,181.57c-0.83-0.55-1.46-1.35-1.9-2.4c-0.43-1.05-0.65-2.31-0.65-3.8v-2.76c0-1.48,0.22-2.76,0.65-3.82
		s1.06-1.87,1.89-2.42c0.83-0.55,1.82-0.83,2.98-0.83c0.88,0,1.69,0.26,2.42,0.77c0.73,0.52,1.32,1.25,1.78,2.21l-0.33,3.59
		c0-0.58-0.1-1.07-0.3-1.48s-0.49-0.71-0.87-0.92c-0.38-0.21-0.84-0.32-1.37-0.32c-0.84,0-1.5,0.28-1.97,0.85s-0.7,1.37-0.7,2.4
		v2.73c0,1.01,0.23,1.79,0.7,2.35s1.12,0.83,1.97,0.83c0.54,0,1-0.1,1.37-0.32c0.38-0.21,0.67-0.51,0.87-0.91s0.3-0.87,0.3-1.43
		l0.22,3.7c-0.34,0.88-0.86,1.57-1.56,2.07s-1.54,0.74-2.52,0.74C126.01,182.4,125.01,182.12,124.18,181.57z M124.4,188.14
		c-1.02-0.46-1.81-1.1-2.37-1.94l2.8-2.57c0.38,0.43,0.83,0.76,1.36,0.99c0.53,0.23,1.07,0.34,1.64,0.34c0.95,0,1.72-0.26,2.31-0.78
		s0.88-1.25,0.88-2.17v-16.24h4.17v15.91c0,1.51-0.28,2.8-0.85,3.87s-1.4,1.89-2.5,2.45s-2.42,0.84-3.96,0.84
		C126.58,188.83,125.42,188.6,124.4,188.14z"/>
	<path d="M142.5,181.54c-1.12-0.57-1.97-1.41-2.55-2.51c-0.58-1.1-0.88-2.42-0.88-3.97v-1.85c0-1.62,0.28-3.01,0.84-4.15
		s1.37-2.02,2.45-2.62c1.07-0.6,2.37-0.9,3.89-0.9c1.42,0,2.64,0.36,3.66,1.07s1.79,1.74,2.31,3.1c0.53,1.35,0.79,2.99,0.79,4.9
		v1.07h-11.18v-2.88h7.36l-0.05-0.33c-0.11-1-0.41-1.77-0.9-2.32c-0.5-0.55-1.16-0.82-1.99-0.82c-1.06,0-1.89,0.32-2.48,0.97
		c-0.59,0.65-0.88,1.56-0.88,2.74v2.09c0,1.15,0.32,2.04,0.96,2.66c0.64,0.63,1.53,0.94,2.69,0.94c0.59,0,1.17-0.1,1.75-0.32
		c0.58-0.21,1.11-0.51,1.58-0.9l2.72,2.45c-0.84,0.78-1.79,1.38-2.85,1.81c-1.06,0.43-2.12,0.64-3.2,0.64
		C144.96,182.4,143.62,182.11,142.5,181.54z"/>
	<path d="M157.21,159.19h4.96l8.93,17.61l-0.38,0.41v-18.02h4v22.95h-4.99l-8.89-17.35l0.38-0.41v17.76h-4V159.19z"/>
	<path d="M182.5,181.54c-1.12-0.57-1.97-1.41-2.55-2.51c-0.58-1.1-0.88-2.42-0.88-3.97v-1.85c0-1.62,0.28-3.01,0.84-4.15
		s1.37-2.02,2.45-2.62c1.07-0.6,2.37-0.9,3.89-0.9c1.42,0,2.64,0.36,3.66,1.07s1.79,1.74,2.31,3.1c0.53,1.35,0.79,2.99,0.79,4.9
		v1.07h-11.18v-2.88h7.36l-0.05-0.33c-0.11-1-0.41-1.77-0.9-2.32c-0.5-0.55-1.16-0.82-1.99-0.82c-1.06,0-1.89,0.32-2.48,0.97
		c-0.59,0.65-0.88,1.56-0.88,2.74v2.09c0,1.15,0.32,2.04,0.96,2.66c0.64,0.63,1.53,0.94,2.69,0.94c0.59,0,1.17-0.1,1.75-0.32
		c0.58-0.21,1.11-0.51,1.58-0.9l2.72,2.45c-0.84,0.78-1.79,1.38-2.85,1.81c-1.06,0.43-2.12,0.64-3.2,0.64
		C184.96,182.4,183.62,182.11,182.5,181.54z"/>
	<path d="M195.63,165.76h7.93v3.59h-7.93V165.76z M198.31,181.14c-0.66-0.73-0.99-1.81-0.99-3.25v-16.9h4.17v15.99
		c0,0.4,0.08,0.71,0.24,0.92c0.16,0.22,0.39,0.32,0.7,0.32h1.14v4.01h-2.13C200.01,182.24,198.97,181.87,198.31,181.14z"/>
</g>
</svg>
