<?xml version="1.0" encoding="utf-8"?>
<!-- Generator: Adobe Illustrator 24.1.2, SVG Export Plug-In . SVG Version: 6.00 Build 0)  -->
<svg version="1.1" id="Layer_1" xmlns="http://www.w3.org/2000/svg" xmlns:xlink="http://www.w3.org/1999/xlink" x="0px" y="0px"
	 viewBox="0 0 218.33 42.52" style="enable-background:new 0 0 218.33 42.52;" xml:space="preserve">
<style type="text/css">
	.st0{fill:#FFFFFF;}
</style>
<g>
	<path class="st0" d="M13.49,9.68h4.17v22.97h-4.17V9.68z M15.42,19.72h7.35c0.54,0,1.01-0.13,1.43-0.38
		c0.42-0.25,0.74-0.61,0.97-1.06c0.23-0.45,0.35-0.97,0.35-1.56c0-0.6-0.11-1.13-0.34-1.59c-0.23-0.46-0.55-0.81-0.96-1.07
		c-0.42-0.25-0.9-0.38-1.45-0.38h-7.35V9.68h7.24c1.42,0,2.67,0.29,3.76,0.88c1.08,0.58,1.92,1.41,2.52,2.47
		c0.59,1.06,0.89,2.3,0.89,3.7c0,1.4-0.3,2.63-0.89,3.69c-0.6,1.06-1.44,1.88-2.52,2.46c-1.08,0.58-2.34,0.87-3.76,0.87h-7.24V19.72
		z"/>
	<path class="st0" d="M34.64,32.04c-1.05-0.56-1.85-1.37-2.4-2.44c-0.55-1.07-0.82-2.36-0.82-3.86v-2.67c0-1.49,0.27-2.76,0.82-3.81
		c0.55-1.06,1.35-1.86,2.4-2.42c1.05-0.55,2.32-0.83,3.81-0.83c1.48,0,2.75,0.28,3.81,0.83c1.05,0.55,1.85,1.36,2.4,2.42
		c0.55,1.06,0.82,2.33,0.82,3.81v2.72c0,1.5-0.27,2.77-0.82,3.83c-0.55,1.06-1.35,1.87-2.4,2.42s-2.32,0.84-3.81,0.84
		C36.96,32.88,35.7,32.6,34.64,32.04z M40.56,28.06c0.5-0.54,0.75-1.3,0.75-2.27v-2.72c0-0.97-0.25-1.72-0.75-2.25
		c-0.5-0.53-1.21-0.8-2.13-0.8c-0.9,0-1.59,0.27-2.09,0.8c-0.5,0.53-0.75,1.28-0.75,2.25v2.72c0,0.98,0.25,1.74,0.74,2.27
		s1.2,0.81,2.1,0.81C39.35,28.87,40.06,28.6,40.56,28.06z"/>
	<path class="st0" d="M52.89,32.62c-0.92-0.17-1.77-0.43-2.57-0.78s-1.51-0.76-2.13-1.25l2.56-3.19c0.8,0.53,1.64,0.93,2.5,1.22
		c0.87,0.28,1.7,0.43,2.49,0.43c1.04,0,1.85-0.13,2.42-0.38C58.72,28.41,59,28.06,59,27.6c0-0.39-0.13-0.68-0.39-0.88
		c-0.26-0.2-0.58-0.34-0.98-0.42c-0.4-0.08-0.96-0.15-1.68-0.21c-0.17-0.02-0.35-0.04-0.53-0.06c-0.18-0.02-0.37-0.04-0.54-0.06
		c-0.04,0-0.09,0-0.13-0.01s-0.09-0.01-0.13-0.01c-1.2-0.15-2.17-0.34-2.91-0.57c-0.74-0.23-1.36-0.67-1.86-1.33
		c-0.51-0.65-0.76-1.6-0.76-2.84c0-1.11,0.26-2.05,0.77-2.83c0.52-0.78,1.27-1.37,2.27-1.77c1-0.4,2.2-0.6,3.63-0.6
		c0.83,0,1.66,0.08,2.47,0.25s1.6,0.41,2.35,0.73c0.75,0.32,1.45,0.69,2.09,1.14l-2.48,3.03c-0.74-0.42-1.5-0.75-2.27-0.97
		c-0.78-0.23-1.53-0.34-2.26-0.34c-0.91,0-1.6,0.11-2.09,0.34c-0.49,0.23-0.73,0.54-0.73,0.96c0,0.29,0.13,0.52,0.4,0.69
		c0.26,0.16,0.59,0.28,1,0.35c0.4,0.07,0.97,0.14,1.72,0.23c0.09,0.01,0.19,0.02,0.28,0.03c0.09,0.01,0.18,0.02,0.28,0.03
		c0.04,0,0.09,0,0.13,0s0.09,0.01,0.13,0.02c1.25,0.14,2.28,0.32,3.09,0.55c0.81,0.23,1.49,0.69,2.05,1.39
		c0.56,0.69,0.84,1.71,0.84,3.05c0,1.15-0.27,2.12-0.81,2.93c-0.54,0.81-1.34,1.42-2.39,1.84c-1.05,0.42-2.31,0.63-3.8,0.63
		C54.75,32.88,53.8,32.79,52.89,32.62z"/>
	<path class="st0" d="M66.09,9.68h4.17v4.17h-4.17V9.68z M66.09,16.25h4.17v16.4h-4.17V16.25z"/>
	<path class="st0" d="M78.7,32.55c-1.04-0.22-2.02-0.54-2.93-0.97c-0.91-0.43-1.73-0.94-2.46-1.54l2.01-3.41
		c0.88,0.73,1.9,1.29,3.04,1.68c1.14,0.4,2.32,0.59,3.55,0.59c1.44,0,2.56-0.25,3.36-0.75s1.2-1.2,1.2-2.11v-0.02
		c0-0.64-0.18-1.15-0.54-1.52c-0.36-0.37-0.82-0.65-1.39-0.82s-1.31-0.33-2.21-0.48c-0.03-0.01-0.06-0.02-0.09-0.02
		c-0.03,0-0.06-0.01-0.09-0.02l-0.33-0.05c-1.54-0.24-2.81-0.54-3.82-0.9c-1.01-0.36-1.86-0.99-2.56-1.9
		c-0.7-0.91-1.05-2.2-1.05-3.86v-0.02c0-1.47,0.33-2.74,0.99-3.78c0.66-1.05,1.62-1.85,2.88-2.39c1.26-0.55,2.78-0.82,4.56-0.82
		c0.82,0,1.66,0.09,2.5,0.28c0.85,0.19,1.68,0.46,2.5,0.82c0.82,0.36,1.59,0.79,2.33,1.3l-1.83,3.51c-0.88-0.61-1.8-1.08-2.75-1.42
		s-1.86-0.51-2.75-0.51c-1.36,0-2.41,0.23-3.16,0.7s-1.12,1.12-1.12,1.96v0.02c0,0.68,0.19,1.22,0.58,1.62s0.87,0.68,1.45,0.86
		c0.57,0.18,1.38,0.37,2.41,0.58c0.04,0.01,0.08,0.02,0.13,0.02s0.08,0.01,0.13,0.02c0.06,0.01,0.12,0.02,0.18,0.04
		c0.06,0.02,0.12,0.03,0.18,0.04c1.44,0.28,2.65,0.63,3.62,1.03c0.97,0.4,1.78,1.05,2.42,1.95c0.65,0.9,0.97,2.13,0.97,3.67v0.03
		c0,1.45-0.34,2.7-1.02,3.74c-0.68,1.04-1.67,1.83-2.98,2.37c-1.31,0.54-2.88,0.81-4.71,0.81C80.81,32.88,79.74,32.77,78.7,32.55z"
		/>
	<path class="st0" d="M93.08,16.25h7.93v3.59h-7.93V16.25z M95.75,31.62c-0.66-0.73-0.99-1.81-0.99-3.25v-16.9h4.17v15.99
		c0,0.4,0.08,0.71,0.24,0.92c0.16,0.22,0.39,0.32,0.7,0.32h1.14v4.01h-2.13C97.45,32.72,96.41,32.36,95.75,31.62z"/>
	<path class="st0" d="M105.43,31.62c-0.88-0.84-1.33-2.11-1.33-3.81c0-1.62,0.48-2.84,1.45-3.65c0.96-0.81,2.41-1.22,4.35-1.22h4.19
		l0.22,3.21h-4.39c-0.68,0-1.2,0.14-1.53,0.41c-0.34,0.27-0.51,0.69-0.51,1.25c0,0.58,0.22,1.01,0.65,1.29
		c0.43,0.28,1.08,0.42,1.96,0.42c1.17,0,2.04-0.13,2.61-0.4c0.57-0.26,0.85-0.67,0.85-1.23l0.33,2.37c-0.1,0.57-0.38,1.05-0.85,1.45
		c-0.47,0.4-1.05,0.69-1.75,0.88c-0.7,0.19-1.44,0.29-2.22,0.29C107.66,32.88,106.31,32.46,105.43,31.62z M113.94,22.25
		c0-0.8-0.26-1.42-0.77-1.86c-0.52-0.44-1.25-0.66-2.2-0.66c-0.61,0-1.22,0.1-1.82,0.3c-0.61,0.2-1.14,0.48-1.6,0.84l-2.64-2.5
		c0.64-0.75,1.5-1.33,2.57-1.75s2.25-0.62,3.55-0.62c1.42,0,2.64,0.24,3.64,0.72c1.01,0.48,1.77,1.17,2.3,2.09
		c0.53,0.91,0.79,2.01,0.79,3.29v10.54h-3.81V22.25z"/>
	<path class="st0" d="M124.18,32.05c-0.83-0.55-1.46-1.35-1.9-2.4c-0.43-1.05-0.65-2.31-0.65-3.8v-2.76c0-1.48,0.22-2.76,0.65-3.82
		s1.06-1.87,1.89-2.42c0.83-0.55,1.82-0.83,2.98-0.83c0.88,0,1.69,0.26,2.42,0.77c0.73,0.52,1.32,1.25,1.78,2.21l-0.33,3.59
		c0-0.58-0.1-1.07-0.3-1.48s-0.49-0.71-0.87-0.92c-0.38-0.21-0.84-0.32-1.37-0.32c-0.84,0-1.5,0.28-1.97,0.85s-0.7,1.37-0.7,2.4
		v2.73c0,1.01,0.23,1.79,0.7,2.35s1.12,0.83,1.97,0.83c0.54,0,1-0.1,1.37-0.32c0.38-0.21,0.67-0.51,0.87-0.91s0.3-0.87,0.3-1.43
		l0.22,3.7c-0.34,0.88-0.86,1.57-1.56,2.07s-1.54,0.74-2.52,0.74C126.01,32.88,125.01,32.6,124.18,32.05z M124.4,38.62
		c-1.02-0.46-1.81-1.1-2.37-1.94l2.8-2.57c0.38,0.43,0.83,0.76,1.36,0.99c0.53,0.23,1.07,0.34,1.64,0.34c0.95,0,1.72-0.26,2.31-0.78
		s0.88-1.25,0.88-2.17V16.25h4.17v15.91c0,1.51-0.28,2.8-0.85,3.87s-1.4,1.89-2.5,2.45s-2.42,0.84-3.96,0.84
		C126.58,39.31,125.42,39.08,124.4,38.62z"/>
	<path class="st0" d="M142.5,32.02c-1.12-0.57-1.97-1.41-2.55-2.51c-0.58-1.1-0.88-2.42-0.88-3.97v-1.85c0-1.62,0.28-3.01,0.84-4.15
		s1.37-2.02,2.45-2.62c1.07-0.6,2.37-0.9,3.89-0.9c1.42,0,2.64,0.36,3.66,1.07s1.79,1.74,2.31,3.1c0.53,1.35,0.79,2.99,0.79,4.9
		v1.07h-11.18v-2.88h7.36l-0.05-0.33c-0.11-1-0.41-1.77-0.9-2.32c-0.5-0.55-1.16-0.82-1.99-0.82c-1.06,0-1.89,0.32-2.48,0.97
		c-0.59,0.65-0.88,1.56-0.88,2.74v2.09c0,1.15,0.32,2.04,0.96,2.66c0.64,0.63,1.53,0.94,2.69,0.94c0.59,0,1.17-0.1,1.75-0.32
		c0.58-0.21,1.11-0.51,1.58-0.9l2.72,2.45c-0.84,0.78-1.79,1.38-2.85,1.81c-1.06,0.43-2.12,0.64-3.2,0.64
		C144.96,32.88,143.62,32.59,142.5,32.02z"/>
	<path class="st0" d="M157.21,9.68h4.96l8.93,17.61l-0.38,0.41V9.68h4v22.95h-4.99l-8.89-17.35l0.38-0.41v17.76h-4V9.68z"/>
	<path class="st0" d="M182.5,32.02c-1.12-0.57-1.97-1.41-2.55-2.51c-0.58-1.1-0.88-2.42-0.88-3.97v-1.85c0-1.62,0.28-3.01,0.84-4.15
		s1.37-2.02,2.45-2.62c1.07-0.6,2.37-0.9,3.89-0.9c1.42,0,2.64,0.36,3.66,1.07s1.79,1.74,2.31,3.1c0.53,1.35,0.79,2.99,0.79,4.9
		v1.07h-11.18v-2.88h7.36l-0.05-0.33c-0.11-1-0.41-1.77-0.9-2.32c-0.5-0.55-1.16-0.82-1.99-0.82c-1.06,0-1.89,0.32-2.48,0.97
		c-0.59,0.65-0.88,1.56-0.88,2.74v2.09c0,1.15,0.32,2.04,0.96,2.66c0.64,0.63,1.53,0.94,2.69,0.94c0.59,0,1.17-0.1,1.75-0.32
		c0.58-0.21,1.11-0.51,1.58-0.9l2.72,2.45c-0.84,0.78-1.79,1.38-2.85,1.81c-1.06,0.43-2.12,0.64-3.2,0.64
		C184.96,32.88,183.62,32.59,182.5,32.02z"/>
	<path class="st0" d="M195.63,16.25h7.93v3.59h-7.93V16.25z M198.31,31.62c-0.66-0.73-0.99-1.81-0.99-3.25v-16.9h4.17v15.99
		c0,0.4,0.08,0.71,0.24,0.92c0.16,0.22,0.39,0.32,0.7,0.32h1.14v4.01h-2.13C200.01,32.72,198.97,32.36,198.31,31.62z"/>
</g>
</svg>
